<svg viewBox="0 0 768 768" xmlns="http://www.w3.org/2000/svg"><path d="M579.008 260.496 534 97.504l-262.992 74 41.984 162.992zM245.968 436.352l.032.144 42.992-12.992-104-404H7.008v56.992h128.768l90.72 365.76zM749.376 497.104 744 474.496l-274.336 76.32 21.2 66.528 270.128-78.688-9.984-42zM408.496 529.392l19.52-19.52-35.392-35.408L373.12 494c-11.344-7.52-24.016-13.12-37.568-16.64v-29.168h-62.816v29.168c-13.84 3.584-26.8 9.344-38.336 17.104l-18.72-18.736-35.392 35.392 19.04 19.04c-7.28 11.136-12.736 23.568-16.176 36.784H154v62.784h29.152c3.52 13.552 9.12 26.256 16.656 37.616l-19.52 19.504 35.392 35.376 19.52-19.52c11.376 7.552 24.096 13.168 37.68 16.672v29.12h62.576v-29.12a124.523 124.523 0 0 0 36.896-16.176l20.288 20.272 35.392-35.36-19.984-20.016c7.808-11.6 13.6-24.64 17.152-38.544h29.12v-62.368H425.2c-3.504-13.616-9.12-26.384-16.704-37.792zM304.16 649.824c-28.432 0-51.472-23.04-51.472-51.488 0-28.416 23.04-51.472 51.472-51.472 28.416 0 51.472 23.04 51.472 51.472 0 28.448-23.056 51.488-51.472 51.488zM342.848 442.256c63.344-11.248 95.648 32.448 95.648 32.448l.336.336c.48.512.864.992 1.312 1.488 6.352 7.84 10.944 19.44 10.944 19.44l2.672 8.384 307.248-84.864-44-163.008-394 108 19.84 77.776z" fill="#6f767e" class="fill-000000"></path></svg>