<svg fill="none" viewBox="0 0 24 24" xmlns="http://www.w3.org/2000/svg"><path clip-rule="evenodd" d="M1 7a3 3 0 0 1 3-3h16a3 3 0 0 1 3 3v10a3 3 0 0 1-3 3H4a3 3 0 0 1-3-3V7Zm3-1a1 1 0 0 0-1 1v10a1 1 0 0 0 1 1h16a1 1 0 0 0 1-1V7a1 1 0 0 0-1-1H4Z" fill="#6f767e" fill-rule="evenodd" class="fill-000000"></path><path clip-rule="evenodd" d="M22 11H2V9h20v2ZM15.5 14a.5.5 0 1 0 0 1 .5.5 0 0 0 0-1Zm-2.5.5a2.5 2.5 0 1 1 5 0 2.5 2.5 0 0 1-5 0Z" fill="#6f767e" fill-rule="evenodd" class="fill-000000"></path><path clip-rule="evenodd" d="M17.5 14a.5.5 0 1 0 0 1 .5.5 0 0 0 0-1Zm-2.5.5a2.5 2.5 0 1 1 5 0 2.5 2.5 0 0 1-5 0ZM9 14H5v-2h4v2ZM9 17H5v-2h4v2Z" fill="#6f767e" fill-rule="evenodd" class="fill-000000"></path></svg>