<svg id="Layer_1" data-name="Layer 1" xmlns="http://www.w3.org/2000/svg" xmlns:xlink="http://www.w3.org/1999/xlink" viewBox="0 0 162.7 64.3"><defs><style>.cls-1{fill:url(#Безымянный_градиент_82);}.cls-2{opacity:0.78;fill:url(#Безымянный_градиент_78);}.cls-3{fill:url(#Безымянный_градиент_41);}</style><linearGradient id="Безымянный_градиент_82" x1="0.86" y1="31.88" x2="162.39" y2="31.88" gradientUnits="userSpaceOnUse"><stop offset="0" stop-color="#00e0d7"/><stop offset="0.45" stop-color="#00e9e0"/><stop offset="1" stop-color="#00f0e7"/></linearGradient><linearGradient id="Безымянный_градиент_78" x1="0.44" y1="43.61" x2="162.67" y2="43.61" gradientUnits="userSpaceOnUse"><stop offset="0.03" stop-color="#4c71f0"/><stop offset="1" stop-color="#2c52db"/></linearGradient><linearGradient id="Безымянный_градиент_41" x1="-470.87" y1="50.92" x2="-308.25" y2="50.92" gradientTransform="matrix(-1, 0, 0, 1, -308.25, 0)" gradientUnits="userSpaceOnUse"><stop offset="0.02" stop-color="#ff864d"/><stop offset="1" stop-color="#ef6262"/></linearGradient></defs><title>Waves</title><path class="cls-1" d="M.9,63.8,15.6,42.4A9.5,9.5,0,0,1,29,40.1l2,1.4a9.5,9.5,0,0,0,14.5-4.6l7.2-21a9.4,9.4,0,0,1,17.9,0l3.5,10.2a9.5,9.5,0,0,0,17.6.7l3-6.8a9.5,9.5,0,0,1,16.5-1.5h0A9.5,9.5,0,0,0,128,16.2l3.3-9.8c3.1-9,16.1-8.3,18.2,1l12.9,56.4S1.3,63.3.9,63.8Z"/><path class="cls-2" d="M.4,64.3,12.5,29.2a9.2,9.2,0,0,1,17.4-.3l5.7,15.6a9.2,9.2,0,0,0,15.9,2.6l4.7-5.8a9.4,9.4,0,0,1,12.7-1.7l10.8,8a9.8,9.8,0,0,0,5.5,1.8H99a9.1,9.1,0,0,1,5.5,1.8l10.3,7.5a9.3,9.3,0,0,0,13.1-2.3l9.6-14.1.4-.5a8.6,8.6,0,0,1,14.4,1.7L162.7,64S.4,63.7.4,64.3Z"/><path class="cls-3" d="M162.6,64,150.1,53.8c-17.3-12.7-25.4,11.4-39-6.7l-4.6-5.8a9.4,9.4,0,0,0-12.7-1.7l-5.4,4a29.5,29.5,0,0,1-17.7,5.8h-7a9.1,9.1,0,0,0-5.5,1.8L47.9,58.7c-4.2,3.1-7.1,3.5-13.9-2.2,0,0-7.3-5.9-7.5-6.2-3.6-4.3-11.1-4.3-14.3,0a36.1,36.1,0,0,1-2.5,3L0,64S162.6,63.3,162.6,64Z"/></svg>